PathFileType	4	(X/Y/Z)	G:\TennisProject\Miami_Dimitrov_Sinner_masked_Sports2D\Miami_Dimitrov_Sinner_masked_Sports2D_px_person02.trc
DataRate	CameraRate	NumFrames	NumMarkers	Units	OrigDataRate	OrigDataStartFrame	OrigNumFrames
25	25	9	22	m	25	436	499
Frame#	Time	Hip			RHip			RKnee			RAnkle			RBigToe			RSmallToe			RHeel			LHip			LKnee			LAnkle			LBigToe			LSmallToe			LHeel			Neck			Head			Nose			RShoulder			RElbow			RWrist			LShoulder			LElbow			LWrist		
		X1	Y1	Z1	X2	Y2	Z2	X3	Y3	Z3	X4	Y4	Z4	X5	Y5	Z5	X6	Y6	Z6	X7	Y7	Z7	X8	Y8	Z8	X9	Y9	Z9	X10	Y10	Z10	X11	Y11	Z11	X12	Y12	Z12	X13	Y13	Z13	X14	Y14	Z14	X15	Y15	Z15	X16	Y16	Z16	X17	Y17	Z17	X18	Y18	Z18	X19	Y19	Z19	X20	Y20	Z20	X21	Y21	Z21	X22	Y22	Z22
436	17.44	1322.097625374604	173.88952079379732	0.0	1316.3579326992055	174.5918495095191	0.0	1314.3170409492498	195.38568765084017	0.0	1312.4034636032825	217.99091106354902	0.0	1312.8271176420158	221.93348723039637	0.0	1309.921246845074	221.91951652667606	0.0	1312.2132640572195	220.41151138317858	0.0	1327.2967190715378	174.97408173687109	0.0	1327.5004210526392	195.64489060415792	0.0	1327.2905465230658	218.20964482104816	0.0	1328.6070041189967	221.80696463910917	0.0	1330.3806123893974	221.7216369975451	0.0	1325.77612373569	220.51980262429223	0.0	1323.5476499180872	143.69962037900243	0.0	1323.8950060102895	130.03417097602727	0.0	1323.6976060335537	137.79378588119636	0.0	1313.3826448710415	149.08470014838662	0.0	1310.850225851791	160.9550663449008	0.0	1318.2905149396247	166.0401134158132	0.0	1333.1985820640957	149.61100027911962	0.0	1334.2339862446597	162.15915974263822	0.0	1327.198917022504	166.729918660377	0.0
437	17.48	1322.1336759822527	174.05472242302602	0.0	1316.3117812360183	174.8719212649544	0.0	1314.3085486788448	195.40792607409145	0.0	1312.2939630390479	217.9988443131781	0.0	1312.8701690954324	222.0002396737995	0.0	1310.0056947359208	222.0151458324069	0.0	1312.234099198764	220.25355591878997	0.0	1327.2961392194798	175.19548019987076	0.0	1327.3176181755389	195.67952921807796	0.0	1327.2083209504492	218.20039392990944	0.0	1328.7198310255008	221.8401935711423	0.0	1330.3351682474504	221.7996824302829	0.0	1325.6738377641448	220.61271029531235	0.0	1323.400743809831	143.61690816081406	0.0	1323.874794497392	130.11063015884463	0.0	1323.609634096964	137.71818070192214	0.0	1313.291113908045	149.0245281030168	0.0	1310.693480858753	161.04879288086514	0.0	1317.999609453619	166.57755882437345	0.0	1333.1599500297834	149.64420462251823	0.0	1334.2351943098051	162.15179664063822	0.0	1327.230020314981	166.7658639865869	0.0
438	17.52	1322.1787291589737	174.22001471458964	0.0	1316.2295673403523	175.08329961874801	0.0	1314.2641055498789	195.40072271516226	0.0	1312.1791133190986	217.85480172120353	0.0	1312.8381862746878	222.02009447630587	0.0	1310.041281861722	222.09871214643945	0.0	1312.1723133801493	220.13409128735447	0.0	1327.3463744992468	175.2873794899422	0.0	1327.2268249107478	195.67799375194758	0.0	1327.1322806615956	218.1051825711278	0.0	1328.883758633202	221.9629578209493	0.0	1330.319628431248	221.8695646012467	0.0	1325.5980944400317	220.68416309763714	0.0	1323.2982878607743	143.563781055193	0.0	1323.792770647789	130.24515111454585	0.0	1323.5920266646026	137.62179169560994	0.0	1313.233804540052	149.01828151024426	0.0	1310.5012028178414	161.19547021305993	0.0	1317.6696556726022	167.05681496416815	0.0	1333.0520292235342	149.6343760629899	0.0	1334.1684038732133	162.13707550583223	0.0	1327.2336044182616	166.81979973837167	0.0
439	17.56	1322.1923288368557	174.12675487893696	0.0	1316.2506645363976	174.94369316141848	0.0	1314.2597084539204	195.4790364987421	0.0	1312.1994089271086	217.88840078751758	0.0	1312.6521939441711	222.01875248550215	0.0	1309.8119032375885	222.09923699955436	0.0	1312.1310548380452	220.32913935412276	0.0	1327.3273853090918	175.13425831677773	0.0	1327.3635717896368	195.7331312886446	0.0	1327.1132601417814	218.15532761014398	0.0	1328.6831430226077	222.08560860550773	0.0	1330.4234954654557	221.83811089296861	0.0	1325.5194866069314	220.6784030811134	0.0	1323.3663504261156	143.71285985157735	0.0	1323.72204172393	130.42345619193185	0.0	1323.5170441740895	137.789062409979	0.0	1313.3251695085567	149.05750535664723	0.0	1310.5101809155422	161.20367232544984	0.0	1317.605310841396	167.21544340939332	0.0	1333.0373262051394	149.6053703767098	0.0	1334.113211807397	162.24996519605162	0.0	1327.118879492964	167.02863064240188	0.0
440	17.6	1322.1596824797155	173.95403452845443	0.0	1316.272208512315	174.65169262599784	0.0	1314.2555532914437	195.49472817008015	0.0	1312.156651678213	217.89775239442292	0.0	1312.3223504051066	222.04491335602611	0.0	1309.3378729769342	222.02496674770163	0.0	1312.1199825828655	220.51584938979084	0.0	1327.2274772672317	174.93511504658585	0.0	1327.4429497571173	195.75561717245037	0.0	1327.1418228995112	218.2295543203963	0.0	1328.3654149537392	222.12266462392984	0.0	1330.4791009941266	221.828176402089	0.0	1325.45043223649	220.69241146018055	0.0	1323.4057411810131	143.78098175279248	0.0	1323.6531980564937	130.50158894989863	0.0	1323.289193123513	137.93049142780666	0.0	1313.3059188553416	149.03427616463816	0.0	1310.505986768888	161.1450195402376	0.0	1317.7247304738196	167.21849665192642	0.0	1333.009261931662	149.58090341940505	0.0	1334.0346686028474	162.33239999916898	0.0	1326.9279909581842	167.2365312377861	0.0
441	17.64	1322.1104732573626	173.9313134187951	0.0	1316.1835605832066	174.5003612494558	0.0	1314.1959789265056	195.2739565331311	0.0	1311.9234668397557	217.66014091234405	0.0	1312.1957698333522	222.1123376597897	0.0	1309.1092289107958	221.9758510459878	0.0	1312.0887630559116	220.4178559952071	0.0	1327.1417165105681	174.82166496941434	0.0	1327.2717591755018	195.6233553924136	0.0	1327.1380086265503	218.14667642981263	0.0	1328.3535315904483	222.12918657972153	0.0	1330.410597414158	221.9136638701278	0.0	1325.413345702343	220.86432214044527	0.0	1323.2981039719248	143.59339186677016	0.0	1323.5497385370838	130.3973220866868	0.0	1323.0959317367947	137.7458510322208	0.0	1313.0617388675225	148.91724582514956	0.0	1310.3310592888313	161.1057521633366	0.0	1317.8466879990765	167.18727915051517	0.0	1332.8449582970363	149.50211778368353	0.0	1333.8912500705007	162.16206504581044	0.0	1326.8312306790128	167.18897647050565	0.0
442	17.68	1322.0724921588017	173.97569099283726	0.0	1316.1369753716403	174.50478970957326	0.0	1314.1736946841972	195.0631960086921	0.0	1311.7905530310136	217.48072002410194	0.0	1312.3444653714778	222.1529295417228	0.0	1309.3309224620477	221.92725191375047	0.0	1312.0691204849134	220.28403330119437	0.0	1327.110596415203	174.8043304310056	0.0	1327.1131225222343	195.47695206111	0.0	1327.1159817216035	218.05911972226738	0.0	1328.4659200304195	222.1544140020855	0.0	1330.3929659756318	221.95424330536093	0.0	1325.4232903328134	221.0365389793318	0.0	1323.2006580278367	143.44725124415507	0.0	1323.479506471662	130.28799349088393	0.0	1323.0984116622808	137.58099416136264	0.0	1312.9080050931104	148.81083644102583	0.0	1310.254363631676	161.11558933635985	0.0	1317.991773315485	167.100842010748	0.0	1332.7069942204935	149.38398186514834	0.0	1333.8274621408818	162.0272744701398	0.0	1326.812565397014	167.00833145027934	0.0
443	17.72	1322.040825026185	174.06089732622422	0.0	1316.2267149952859	174.71715744703923	0.0	1314.2313094658887	195.28362420363112	0.0	1311.92832798741	217.70234777837686	0.0	1312.24586471162	222.1334493507864	0.0	1309.4375685435214	221.8540017434346	0.0	1312.0660594016806	220.4393835669566	0.0	1327.1074960578412	175.04554944130518	0.0	1327.2101112041428	195.63378547803174	0.0	1327.1808788971098	218.18966887055097	0.0	1328.4058450664104	222.12797231365164	0.0	1330.5023964872103	221.8754739927552	0.0	1325.504670678239	221.01988919054546	0.0	1323.2306636423377	143.55385925281905	0.0	1323.5014316042812	130.30850009231645	0.0	1323.1690743150812	137.74893686639433	0.0	1313.0037984326464	148.82901238500523	0.0	1310.4250497031665	161.29411409572617	0.0	1318.1530342905526	167.07839959029718	0.0	1332.7597200675052	149.36021755165638	0.0	1333.971491371924	162.3216248383019	0.0	1326.7248552210724	167.0097677027603	0.0
444	17.76	1321.979574190142	174.2479136269252	0.0	1316.2468304141153	175.12813695897984	0.0	1314.2236585493665	195.71831372417773	0.0	1312.0561226232612	217.9552457648156	0.0	1311.7839246086885	222.11999148511597	0.0	1309.0991548172665	221.8568883117169	0.0	1312.0839591041697	220.64165995926362	0.0	1327.0576803069685	175.4928648208438	0.0	1327.3497062522986	195.97735136760778	0.0	1327.2477592905552	218.2715864208601	0.0	1328.3253762501797	222.0390233930364	0.0	1330.57359891413	221.7701108180474	0.0	1325.5861203705906	220.914816464559	0.0	1323.2291197013142	143.62208955399913	0.0	1323.4871532237394	130.28445549123225	0.0	1323.1358563212912	137.86806079856748	0.0	1313.0798248380004	148.9135533351713	0.0	1310.505808951696	161.59699542361017	0.0	1318.005547143072	167.35667522053083	0.0	1332.8400152881502	149.42212447579092	0.0	1334.0941600042374	162.83311603533798	0.0	1326.5763529011415	167.22622008093447	0.0
